<svg width="30" height="30" viewBox="0 0 30 30" fill="none" xmlns="http://www.w3.org/2000/svg">
<path d="M15.6 1.20001C7.98521 1.20001 1.80005 7.38517 1.80005 15C1.80005 22.6149 7.98521 28.8 15.6 28.8C21.5508 28.8 25.1836 26.0625 27.0751 22.6688C28.9665 19.275 29.2055 15.2883 28.6313 12.5625L28.5188 12.0938H28.0501L15.6 12.075H15V18.3188H21.8625C20.8266 20.7188 18.7172 22.3688 15.6 22.3688C11.5266 22.3688 8.2313 19.0735 8.2313 15C8.2313 10.9266 11.5266 7.63126 15.6 7.63126C17.4305 7.63126 19.0922 8.30861 20.3813 9.41251L20.8125 9.76876L24.9188 5.66251L25.35 5.21251L24.9 4.80001C22.4485 2.56642 19.1766 1.20001 15.6 1.20001ZM15.6 2.40001C18.6446 2.40001 21.3915 3.51329 23.5688 5.30626L20.6813 8.19376C19.254 7.12736 17.5196 6.43126 15.6 6.43126C10.8774 6.43126 7.0313 10.2774 7.0313 15C7.0313 19.7227 10.8774 23.5688 15.6 23.5688C19.5305 23.5688 22.3571 21.1594 23.3625 17.8875L23.6063 17.1188H16.2V13.275L27.5063 13.2938C27.9047 15.7149 27.6399 19.1906 26.025 22.0875C24.3094 25.1625 21.1922 27.6 15.6 27.6C8.63208 27.6 3.00005 21.9656 3.00005 15C3.00005 8.03439 8.63208 2.40001 15.6 2.40001Z" fill="black"/>
</svg>
