<svg width="18" height="18" viewBox="0 0 18 18" fill="none" xmlns="http://www.w3.org/2000/svg">
<g clip-path="url(#clip0_251_302)">
<path d="M13.865 17.72C13.6969 17.7195 13.5292 17.7011 13.365 17.665C10.2383 17.0182 7.35781 15.5017 5.055 13.29C2.80134 11.0734 1.2383 8.25128 0.555005 5.16498C0.474436 4.78034 0.494211 4.38143 0.612428 4.00664C0.730644 3.63185 0.943324 3.29379 1.23001 3.02498L3.23 1.09998C3.33216 1.00337 3.45353 0.929395 3.58621 0.882871C3.71889 0.836347 3.85989 0.818325 4 0.82998C4.14529 0.845136 4.28548 0.891937 4.41074 0.967089C4.53599 1.04224 4.64326 1.14392 4.725 1.26498L7.225 4.95998C7.31876 5.10335 7.36401 5.27303 7.35411 5.44405C7.34421 5.61506 7.27968 5.77839 7.17 5.90998L5.915 7.40998C6.41483 8.51621 7.12268 9.51602 8 10.355C8.87165 11.2244 9.90192 11.9186 11.035 12.4L12.59 11.165C12.7206 11.0618 12.8795 11.0007 13.0457 10.99C13.2118 10.9793 13.3772 11.0194 13.52 11.105L17.295 13.545C17.4245 13.6223 17.5349 13.728 17.6178 13.854C17.7007 13.9801 17.7541 14.1233 17.7738 14.2729C17.7935 14.4225 17.7791 14.5746 17.7317 14.7178C17.6843 14.861 17.6051 14.9917 17.5 15.1L15.55 17.03C15.3285 17.2504 15.0656 17.4248 14.7764 17.5433C14.4872 17.6617 14.1775 17.7217 13.865 17.72ZM3.92 1.81998L1.92001 3.74498C1.75873 3.89526 1.63935 4.08492 1.5736 4.29532C1.50785 4.50572 1.49799 4.72962 1.54501 4.94498C2.18037 7.84105 3.64086 10.4911 5.75 12.575C7.9171 14.6558 10.6278 16.0822 13.57 16.69C13.7927 16.7365 14.0235 16.7271 14.2416 16.6625C14.4598 16.598 14.6585 16.4803 14.82 16.32L16.77 14.39L13.125 12.035L11.455 13.365C11.3911 13.4156 11.3157 13.4498 11.2356 13.4646C11.1554 13.4794 11.0728 13.4744 10.995 13.45C9.60836 12.9391 8.35173 12.1281 7.315 11.075C6.24268 10.0736 5.41032 8.84298 4.88 7.47498C4.85757 7.39216 4.85682 7.30496 4.87784 7.22178C4.89886 7.13859 4.94093 7.06221 5 6.99998L6.35 5.38498L3.92 1.81998Z" fill="#9C6955"/>
</g>
<defs>
<clipPath id="clip0_251_302">
<rect width="18" height="18" fill="white"/>
</clipPath>
</defs>
</svg>
