<svg width="23" height="24" viewBox="0 0 23 24" fill="none" xmlns="http://www.w3.org/2000/svg">
<g clip-path="url(#clip0_289_87)">
<mask id="path-1-inside-1_289_87" fill="white">
<path d="M10.2556 3.36667C11.6159 3.36535 12.9461 3.79236 14.0778 4.5937C15.2095 5.39503 16.0919 6.53467 16.6134 7.86845C17.1348 9.20224 17.2719 10.6702 17.0073 12.0867C16.7427 13.5032 16.0882 14.8046 15.1267 15.8262C14.1652 16.8478 12.9399 17.5437 11.6058 17.8259C10.2716 18.1081 8.88859 17.9639 7.63165 17.4116C6.37472 16.8593 5.30033 15.9236 4.54442 14.723C3.78851 13.5224 3.38503 12.1108 3.38503 10.6667C3.39328 8.73444 4.11959 6.88374 5.4061 5.51681C6.69261 4.14988 8.43535 3.37719 10.2556 3.36667M10.2556 2C8.64083 2 7.06235 2.50829 5.71975 3.4606C4.37714 4.4129 3.33071 5.76645 2.71278 7.35008C2.09485 8.9337 1.93317 10.6763 2.24819 12.3574C2.56321 14.0386 3.34078 15.5829 4.48257 16.7949C5.62436 18.007 7.07909 18.8324 8.6628 19.1668C10.2465 19.5012 11.8881 19.3296 13.3799 18.6736C14.8717 18.0177 16.1468 16.9068 17.0439 15.4816C17.941 14.0564 18.4198 12.3808 18.4198 10.6667C18.4198 8.36812 17.5597 6.16372 16.0286 4.53841C14.4975 2.91309 12.4209 2 10.2556 2Z"/>
</mask>
<path d="M10.2556 3.36667C11.6159 3.36535 12.9461 3.79236 14.0778 4.5937C15.2095 5.39503 16.0919 6.53467 16.6134 7.86845C17.1348 9.20224 17.2719 10.6702 17.0073 12.0867C16.7427 13.5032 16.0882 14.8046 15.1267 15.8262C14.1652 16.8478 12.9399 17.5437 11.6058 17.8259C10.2716 18.1081 8.88859 17.9639 7.63165 17.4116C6.37472 16.8593 5.30033 15.9236 4.54442 14.723C3.78851 13.5224 3.38503 12.1108 3.38503 10.6667C3.39328 8.73444 4.11959 6.88374 5.4061 5.51681C6.69261 4.14988 8.43535 3.37719 10.2556 3.36667M10.2556 2C8.64083 2 7.06235 2.50829 5.71975 3.4606C4.37714 4.4129 3.33071 5.76645 2.71278 7.35008C2.09485 8.9337 1.93317 10.6763 2.24819 12.3574C2.56321 14.0386 3.34078 15.5829 4.48257 16.7949C5.62436 18.007 7.07909 18.8324 8.6628 19.1668C10.2465 19.5012 11.8881 19.3296 13.3799 18.6736C14.8717 18.0177 16.1468 16.9068 17.0439 15.4816C17.941 14.0564 18.4198 12.3808 18.4198 10.6667C18.4198 8.36812 17.5597 6.16372 16.0286 4.53841C14.4975 2.91309 12.4209 2 10.2556 2Z" fill="white"/>
<path d="M3.38503 10.6667L3.18503 10.6658V10.6667H3.38503ZM10.2556 2V2.2V2ZM18.4198 10.6667H18.6198H18.4198ZM10.2558 3.56667C11.5738 3.56539 12.8637 3.97906 13.9622 4.75692L14.1934 4.43047C13.0285 3.60567 11.6581 3.16531 10.2554 3.16667L10.2558 3.56667ZM13.9622 4.75692C15.061 5.5349 15.9194 6.64263 16.4271 7.94128L16.7997 7.79563C16.2645 6.42672 15.3581 5.25515 14.1934 4.43047L13.9622 4.75692ZM16.4271 7.94128C16.9349 9.24 17.0685 10.67 16.8107 12.05L17.2039 12.1235C17.4753 10.6704 17.3348 9.16448 16.7997 7.79563L16.4271 7.94128ZM16.8107 12.05C16.5529 13.4299 15.9156 14.6962 14.9811 15.6891L15.2723 15.9633C16.2608 14.913 16.9324 13.5765 17.2039 12.1235L16.8107 12.05ZM14.9811 15.6891C14.0467 16.6819 12.8574 17.3567 11.5644 17.6302L11.6471 18.0216C13.0224 17.7307 14.2838 17.0136 15.2723 15.9633L14.9811 15.6891ZM11.5644 17.6302C10.2715 17.9037 8.93103 17.7641 7.71211 17.2285L7.5512 17.5947C8.84616 18.1638 10.2718 18.3125 11.6471 18.0216L11.5644 17.6302ZM7.71211 17.2285C6.49303 16.6928 5.44905 15.7845 4.71367 14.6165L4.37517 14.8296C5.15162 16.0628 6.2564 17.0258 7.5512 17.5947L7.71211 17.2285ZM4.71367 14.6165C3.97822 13.4483 3.58503 12.0738 3.58503 10.6667H3.18503C3.18503 12.1477 3.59879 13.5964 4.37517 14.8296L4.71367 14.6165ZM3.58503 10.6675C3.59307 8.78429 4.30105 6.98275 5.55174 5.65388L5.26046 5.37974C3.93812 6.78474 3.19349 8.68458 3.18503 10.6658L3.58503 10.6675ZM5.55174 5.65388C6.80205 4.32541 8.49315 3.57686 10.2567 3.56666L10.2544 3.16667C8.37756 3.17752 6.58317 3.97435 5.26046 5.37974L5.55174 5.65388ZM10.2556 1.8C8.59852 1.8 6.97976 2.32167 5.60404 3.29747L5.83546 3.62373C7.14495 2.69491 8.68314 2.2 10.2556 2.2V1.8ZM5.60404 3.29747C4.22849 4.27314 3.1581 5.65862 2.52646 7.27737L2.8991 7.42278C3.50332 5.87428 4.5258 4.55266 5.83546 3.62373L5.60404 3.29747ZM2.52646 7.27737C1.89485 8.89606 1.72975 10.6766 2.05161 12.3943L2.44476 12.3206C2.13659 10.676 2.29485 8.97134 2.8991 7.42278L2.52646 7.27737ZM2.05161 12.3943C2.37347 14.112 3.1682 15.6914 4.33699 16.9321L4.62814 16.6578C3.51335 15.4744 2.75294 13.9652 2.44476 12.3206L2.05161 12.3943ZM4.33699 16.9321C5.50589 18.1729 6.99665 19.0194 8.62148 19.3625L8.70412 18.9711C7.16152 18.6454 5.74282 17.8411 4.62814 16.6578L4.33699 16.9321ZM8.62148 19.3625C10.2464 19.7056 11.9306 19.5294 13.4604 18.8567L13.2994 18.4905C11.8456 19.1298 10.2466 19.2968 8.70412 18.9711L8.62148 19.3625ZM13.4604 18.8567C14.9901 18.1841 16.2955 17.046 17.2132 15.5881L16.8746 15.3751C15.9981 16.7677 14.7534 17.8512 13.2994 18.4905L13.4604 18.8567ZM17.2132 15.5881C18.1307 14.1304 18.6198 12.4178 18.6198 10.6667H18.2198C18.2198 12.3438 17.7513 13.9823 16.8746 15.3751L17.2132 15.5881ZM18.6198 10.6667C18.6198 8.31881 17.7413 6.06488 16.1741 4.40127L15.883 4.67555C17.378 6.26256 18.2198 8.41744 18.2198 10.6667H18.6198ZM16.1741 4.40127C14.6066 2.73725 12.4779 1.8 10.2556 1.8V2.2C12.3638 2.2 14.3883 3.08893 15.883 4.67555L16.1741 4.40127Z" fill="black" mask="url(#path-1-inside-1_289_87)"/>
<path d="M21.162 23.065L21.162 23.065L16.5978 18.1871L17.3517 17.3925L21.9077 22.2616C21.9077 22.2616 21.9077 22.2617 21.9077 22.2617C21.9569 22.3143 21.9962 22.3769 22.023 22.4463C22.0497 22.5156 22.0635 22.5901 22.0632 22.6654C22.063 22.7406 22.0487 22.815 22.0215 22.8841C21.9943 22.9532 21.9546 23.0156 21.9051 23.0678C21.8555 23.12 21.7971 23.161 21.7333 23.1888C21.6696 23.2166 21.6015 23.2306 21.533 23.2304C21.4645 23.2301 21.3965 23.2155 21.3329 23.1873C21.2693 23.1591 21.2112 23.1176 21.162 23.065Z" fill="white" stroke="black" stroke-width="0.2"/>
</g>
<defs>
<clipPath id="clip0_289_87">
<rect width="22.6087" height="24" fill="white"/>
</clipPath>
</defs>
</svg>
