<svg width="23" height="24" viewBox="0 0 23 24" fill="none" xmlns="http://www.w3.org/2000/svg">
<g clip-path="url(#clip0_289_78)">
<path d="M10.1259 19.8333C10.1259 20.637 9.51291 21.2833 8.7629 21.2833C8.01288 21.2833 7.39985 20.637 7.39985 19.8333C7.39985 19.0297 8.01288 18.3833 8.7629 18.3833C9.51291 18.3833 10.1259 19.0297 10.1259 19.8333Z" fill="white" stroke="black" stroke-width="0.1"/>
<path d="M18.7109 19.8333C18.7109 20.637 18.0979 21.2833 17.3479 21.2833C16.5978 21.2833 15.9848 20.637 15.9848 19.8333C15.9848 19.0297 16.5978 18.3833 17.3479 18.3833C18.0979 18.3833 18.7109 19.0297 18.7109 19.8333Z" fill="white" stroke="black" stroke-width="0.1"/>
<path d="M21.1265 3.61036L21.1265 3.61037L21.1273 3.61138C21.1847 3.68261 21.2262 3.76701 21.2484 3.85822C21.2706 3.94925 21.273 4.0445 21.2554 4.13668C21.2553 4.13686 21.2553 4.13705 21.2553 4.13723L19.2646 13.4696L19.2646 13.4696C19.235 13.6094 19.1607 13.7333 19.0552 13.8207C18.9498 13.908 18.8196 13.9535 18.6868 13.95V13.95H18.6855H8.9889H8.97002L8.95585 13.9625L7.44232 15.2958L7.43553 15.3018L7.43127 15.3098C7.39168 15.3839 7.37086 15.4674 7.37066 15.5523C7.37045 15.6372 7.39085 15.7208 7.43008 15.7952C7.46931 15.8695 7.52613 15.9323 7.59534 15.977C7.66457 16.0218 7.74376 16.047 7.82525 16.05L7.82525 16.05H7.82706H18.4092C18.5615 16.05 18.7082 16.1142 18.8169 16.2295C18.9256 16.345 18.9872 16.5022 18.9872 16.6667C18.9872 16.8311 18.9256 16.9883 18.8169 17.1038C18.7082 17.2191 18.5615 17.2833 18.4092 17.2833H7.92755V17.2833L7.92492 17.2834C7.66406 17.2971 7.4037 17.2458 7.16462 17.1335C6.92567 17.0213 6.71447 16.8512 6.54806 16.6365C6.31441 16.3216 6.19119 15.9297 6.20011 15.5282C6.20903 15.1271 6.34924 14.7423 6.59607 14.4397L6.67477 14.3561L7.70282 13.4644L7.72719 13.4433L7.71797 13.4124L4.83536 3.74571L4.82787 3.72057L4.80291 3.71245L2.54837 2.97913C2.40179 2.93132 2.27817 2.82332 2.20555 2.67782C2.13288 2.53225 2.11758 2.36168 2.16325 2.2039C2.20892 2.04617 2.31147 1.91505 2.44733 1.83863C2.51459 1.8008 2.58807 1.77748 2.66358 1.76987C2.73908 1.76227 2.81529 1.77052 2.88788 1.7942C2.88788 1.7942 2.88788 1.7942 2.88789 1.7942L5.46276 2.6342L5.46286 2.63423C5.55167 2.663 5.6329 2.71425 5.6995 2.78388C5.76609 2.85349 5.81605 2.93939 5.84488 3.03438C5.84489 3.03443 5.8449 3.03447 5.84492 3.03451L8.71489 12.6809L8.72552 12.7167H8.76281H18.1831H18.2237L18.232 12.6769L19.9089 4.67693L19.9215 4.61667H19.8599L10.05 4.61667V3.38333L20.6825 3.38333C20.7673 3.38396 20.851 3.4045 20.9277 3.44363C21.0045 3.4828 21.0724 3.53967 21.1265 3.61036Z" fill="white" stroke="black" stroke-width="0.1"/>
</g>
<defs>
<clipPath id="clip0_289_78">
<rect width="22.6087" height="24" fill="white" transform="translate(0.391357)"/>
</clipPath>
</defs>
</svg>
