<svg width="24" height="24" viewBox="0 0 24 24" fill="none" xmlns="http://www.w3.org/2000/svg">
<g clip-path="url(#clip0_289_83)">
<path d="M14.6454 10.4653C13.939 10.9663 13.1092 11.2333 12.2609 11.2333C11.1235 11.2333 10.0313 10.7537 9.22513 9.89793C8.41874 9.04191 7.96475 7.87968 7.96475 6.66666C7.96475 5.76218 8.21743 4.87845 8.69026 4.12727C9.16305 3.37615 9.83444 2.79166 10.6188 2.44677C11.4031 2.10192 12.2657 2.0118 13.0979 2.18751C13.9301 2.36323 14.6954 2.79715 15.2966 3.4354C15.8979 4.07372 16.3081 4.88769 16.4743 5.77466C16.6405 6.66165 16.5551 7.58098 16.2292 8.41617C15.9033 9.25133 15.3519 9.9642 14.6454 10.4653ZM14.0633 3.81353C13.5303 3.43552 12.9031 3.23333 12.2609 3.23333C11.3996 3.23333 10.5748 3.5966 9.96771 4.24107C9.36079 4.88534 9.02078 5.75795 9.02078 6.66666C9.02078 7.34443 9.21009 8.00742 9.56536 8.57184C9.92066 9.1363 10.4263 9.57719 11.019 9.8378C11.6117 10.0985 12.2644 10.1668 12.8941 10.0338C13.5238 9.90083 14.1013 9.57282 14.5541 9.09226C15.0067 8.61175 15.3143 8.00026 15.4389 7.33538C15.5635 6.67052 15.4996 5.98132 15.2551 5.3547C15.0106 4.72805 14.5961 4.19149 14.0633 3.81353Z" fill="white" stroke="black" stroke-width="0.2"/>
<path d="M16.484 13.6924C17.8169 14.3016 19.0192 15.193 20.0172 16.3127C20.2166 16.5424 20.3272 16.8449 20.3252 17.1593V17.16V20.6667C20.3252 20.9956 20.202 21.31 19.9845 21.5409C19.7672 21.7716 19.4738 21.9 19.1691 21.9H5.35272C5.04811 21.9 4.75468 21.7716 4.53736 21.5409C4.31984 21.31 4.19668 20.9956 4.19668 20.6667L4.19668 17.16L4.19668 17.1599C4.19622 16.8445 4.30901 16.5417 4.51063 16.313C5.50875 15.1932 6.71116 14.3016 8.04419 13.6924C9.37727 13.0832 10.8131 12.7691 12.2641 12.7691C13.715 12.7691 15.1509 13.0832 16.484 13.6924ZM19.1691 20.7667H19.2691V20.6667V17.1533V17.1151L19.2437 17.0867C18.3446 16.0817 17.262 15.2811 16.0615 14.7339C14.861 14.1866 13.5679 13.9043 12.2609 13.9043C10.954 13.9043 9.66087 14.1866 8.46036 14.7339C7.25986 15.2811 6.17724 16.0817 5.27819 17.0867L5.25272 17.1151V17.1533V20.6667V20.7667H5.35272H19.1691Z" fill="white" stroke="black" stroke-width="0.2"/>
</g>
<defs>
<clipPath id="clip0_289_83">
<rect width="22.6087" height="24" fill="white" transform="translate(0.956543)"/>
</clipPath>
</defs>
</svg>
